<svg xmlns="http://www.w3.org/2000/svg" width="256" height="256" viewBox="0 0 256 256">
<!-- SVG created with Arrow, by QuiverAI (https://quiver.ai) -->
  <path d="m124.8 68.61c-21.47-0.38-40.11 21.72-40.11 49.25v8.8l12.56 7.25v-16.17c0-7.98 1.16-14.56 7.39-21.25 7.56-8.2 15.47-10.84 24.49-10.34 7.88 0.46 17.99 5.97 23.31 12.57 5.31 6.61 4.71 13.58 4.71 22.82v13.79c0 1.76 5.05 4.95 8.1 4.41 2.08-0.38 5.44-2.65 5.44-3.78v-17.85c0.44-23.3-19.51-49.04-45.89-49.5z" fill="#FF5300" stroke="#E39F86" stroke-miterlimit="10" stroke-width=".7"/>
  <path d="m126.9 93.34c-11.7-0.28-20.4 10.63-20.7 21.32-0.32 8.27-0.15 19.02-0.15 25.35 0 0.66 11.2 11.91 12.38 12.07 0.84 0.13 1.35-1.07 1.35-1.76 0-5.65 0.05-18.35 0.5-34.4 0.17-5.79 2.45-8.09 7.34-8.09 4.08 0 6.48 3.24 6.58 7.28 0.48 14.61 0.57 30.63 0.66 41.08 0 1.12 1.06 1.5 1.88 1.1 3.16-1.48 10.04-4.68 11.53-6.04 0.73-0.67 0.23-26.24 0.04-35.12-0.3-12.22-9.9-22.52-21.41-22.79z" fill="#FF5300" stroke="#E39F86" stroke-miterlimit="10" stroke-width=".7"/>
  <path d="m8.72 44.44c-2.53 0-3.56 2.27-2.94 4.46 2.21 7.91 18.71 49.87 24.01 64.35 1.3 3.16 4.02 3.96 6.7 4.06 11.22 0.45 28.73 4.1 36.64 6.6 1.86 0.6 2.59 0.79 2.59-1.64 0-1.88-1.27-5.57-2.46-8.55-8.25-20.98-15.29-40.12-23.74-59.23-4.54-9.12-13.85-10.18-20.81-10.18-5.41 0-12.54 0.13-19.99 0.13z" fill="#FF5300" stroke="#E39F86" stroke-miterlimit="10" stroke-width=".7"/>
  <path d="m247.1 44.31h-20.61c-12.48 0-18.1 5.87-21.54 13.9l-25.26 65.25c-5.14 11.95 3.42 23.2 15.98 27.59 3.19 1.44 8.25 3.36 9.43 3.11 1.51-0.32 2.69-3.25 3.66-5.78 13.56-31.52 30.82-70.4 40.97-98.16 1.42-3.29 0.44-5.91-2.63-5.91z" fill="#FF5300" stroke="#E39F86" stroke-miterlimit="10" stroke-width=".7"/>
  <path d="m18.33 121.1c-0.95 2.67 3.51 6.84 13.38 9.9 9.08 2.98 20.2 4.95 28.11 7.34 29.71 9.19 43.19 23.25 57.35 45.35 1.51 2.55 1.95 6.07 2.11 6.43 0.6 1.58 3.8 1.55 4.85-1.52 1.33-4.37 4-4.97 8.41-7.25 10.12-4.59 22.37-7.11 35.55-7.11 18.19 0 32.04 5.21 50.9 16.01 1.18 0.7 0.93-0.35 0.55-1.53-2.28-6.56-6.36-16.29-9.56-22.69-1.09-2.39-5.82-4.18-8.36-5.13-9.85-3.72-16.67-7.1-27.9-7.1-22.01 0.45-40.6 12.32-49.94 26.98-0.62 0.95-0.53 0.57-1.08-0.76-9.74-24.32-27.46-45.75-65.49-53.51-10.07-2.27-23.75-3.21-31.66-5.49-3.16-1.01-6.08-2.59-7.22 0.08z" fill="#FF5300" stroke="#E39F86" stroke-miterlimit="10" stroke-width=".7"/>
  <path d="m36.38 139.6c6.32 1.04 10.38 2.33 15.71 3.68 24.32 6.32 43.27 14.5 58.85 40.65 0.97 1.76-0.33 0.85-0.68 0.47-13.21-10.82-25.08-14.1-42.05-14.1h-17.31c-1.72 0-1.68-0.24-2.69-2.74-3.49-7.68-7.14-16.95-11.83-27.96z" fill="#FF5300" stroke="#E39F86" stroke-miterlimit="10" stroke-width=".7"/>
  <path d="m58.18 176.1c17.73-0.63 36.31 6.12 49.11 13.66 1.68 0.98 1.42 1.36 0.87 3.12-4.54 11.75-13.44 18.78-24.75 18.78-9.6 0-17.56-5.87-21.13-13.73-3.02-6.21-5.37-11.3-8.57-17.76-1.05-2.39 0.58-3.93 4.47-4.07z" fill="#FF5300" stroke="#E39F86" stroke-miterlimit="10" stroke-width=".7"/>
  <path d="m167.2 181.1c9.86 0 20.53 3.02 27.94 5.99 2.12 0.84 1.62 2.73 0.98 4.57-3.2 9.25-11.9 19.48-22.99 19.9-15.41 0.7-25.56-9.6-29.33-23.77-0.63-2-0.38-2.38 1.52-3.07 6.51-2.52 13.8-3.62 21.88-3.62z" fill="#FF5300" stroke="#E39F86" stroke-miterlimit="10" stroke-width=".7"/>
</svg>